Coordinates
version=1
nRows=24
nColumns=24
inDegrees=yes

Units are S.I. units (second, meters, Newtons, ...)
Angles are in degrees.

endheader
time	pelvis_tilt	pelvis_list	pelvis_rotation	pelvis_tx	pelvis_ty	pelvis_tz	hip_flexion_r	hip_adduction_r	hip_rotation_r	knee_angle_r	ankle_angle_r	subtalar_angle_r	mtp_angle_r	hip_flexion_l	hip_adduction_l	hip_rotation_l	knee_angle_l	ankle_angle_l	subtalar_angle_l	mtp_angle_l	lumbar_extension	lumbar_bending	lumbar_rotation
      1.14950000	      0.42590986	      3.65266911	     -1.48833809	      0.14012171	      1.00584836	      0.28338158	     20.37601303	     -3.07728715	     -0.33840561	    -68.65411743	      0.19813377	    -15.72576116	     -2.35833869	      7.16719198	      8.43955132	     -0.66541583	    -10.83440339	      2.17584862	     -6.93474310	      4.80180941	     -2.53048034	     -1.11731626	      2.45153837
      1.15366667	      0.41438449	      3.50653189	     -1.49517475	      0.14518681	      1.00657353	      0.28330840	     20.90517331	     -2.85759284	     -0.23006613	    -68.30336573	      0.70105685	    -15.83040460	     -2.40990532	      6.68258558	      8.29562426	     -0.60566086	    -10.52017924	      2.24965315	     -6.88870840	      4.77177141	     -2.53486733	     -0.94727062	      2.41443229
      1.15783333	      0.47387151	      3.37311675	     -1.51110917	      0.15024560	      1.00737207	      0.28324598	     21.33736705	     -2.65204189	     -0.11676905	    -67.88803538	      1.18843658	    -16.03440438	     -2.84615095	      6.09198094	      8.17409360	     -0.47707770	    -10.14245451	      2.27160369	     -6.93094435	      4.51819776	     -2.65689687	     -0.78245660	      2.30921292
      1.16200000	      0.43361969	      3.24524858	     -1.51011907	      0.15527995	      1.00795472	      0.28317497	     21.87022405	     -2.45668117	     -0.01648762	    -67.43599800	      1.73801718	    -16.10192304	     -2.89090794	      5.65995631	      8.04818473	     -0.42118275	     -9.86646748	      2.40471716	     -6.87042476	      4.48906857	     -2.63058168	     -0.62354618	      2.28968520
      1.16616667	      0.43060949	      3.11339334	     -1.51550353	      0.16032095	      1.00856916	      0.28312790	     22.33577401	     -2.25170648	      0.09147251	    -66.90901992	      2.26337535	    -16.18350933	     -2.94169524	      5.17897327	      7.91765165	     -0.35669985	     -9.57064362	      2.50676818	     -6.81324280	      4.45374260	     -2.66311712	     -0.46201773	      2.24686773
      1.17033333	      0.42100550	      2.98741481	     -1.51591222	      0.16535254	      1.00911949	      0.28307058	     22.79222817	     -2.05921953	      0.18856549	    -66.32693068	      2.75817909	    -16.25540568	     -2.98755118	      4.70673909	      7.79445629	     -0.28808456	     -9.27326749	      2.61119583	     -6.76880908	      4.42003347	     -2.68536834	     -0.30162257	      2.19452188
      1.17450000	      0.42912192	      2.85611902	     -1.50898374	      0.17036785	      1.00967900	      0.28304552	     23.20041732	     -1.85308976	      0.28957102	    -65.67021782	      3.26708297	    -16.32527930	     -3.05206223	      4.22170730	      7.66429347	     -0.20449769	     -8.98688630	      2.70953486	     -6.74123610	      4.37109289	     -2.72941109	     -0.16819741	      2.12550785
      1.17866667	      0.43513103	      2.73851683	     -1.50214951	      0.17539750	      1.01017462	      0.28300389	     23.59367441	     -1.66979762	      0.38366357	    -64.96310302	      3.74815230	    -16.37606353	     -3.12063262	      3.73734383	      7.55009584	     -0.12410680	     -8.69624740	      2.80749059	     -6.72314813	      4.31740405	     -2.76967156	     -0.02814635	      2.05394051
      1.18283333	      0.41233136	      2.61056964	     -1.48913210	      0.18040836	      1.01058937	      0.28296706	     23.99757709	     -1.47327752	      0.47178335	    -64.19473529	      4.20110905	    -16.42611990	     -3.18244097	      3.29153705	      7.42290311	     -0.04328902	     -8.41626758	      2.91091698	     -6.70873244	      4.26823631	     -2.77894574	      0.12501395	      1.98545910
      1.18700000	      0.40421863	      2.49634384	     -1.47213641	      0.18541892	      1.01097442	      0.28292891	     24.36525930	     -1.29576097	      0.55719996	    -63.37331451	      4.64783771	    -16.47253987	     -3.24281974	      2.83143292	      7.31123930	      0.03863929	     -8.13719296	      3.01197496	     -6.69946679	      4.21926640	     -2.80470945	      0.26427013	      1.91248267
      1.19116667	      0.38289138	      2.39315538	     -1.44923169	      0.19042147	      1.01129235	      0.28289164	     24.72742055	     -1.13099724	      0.64188149	    -62.49747492	      5.06396387	    -16.52456404	     -3.30922171	      2.38943258	      7.21152846	      0.13306026	     -7.86389146	      3.11287331	     -6.70296716	      4.16567300	     -2.81435110	      0.38444140	      1.83034308
      1.19533333	      0.35516341	      2.28518807	     -1.42340502	      0.19542187	      1.01155082	      0.28284948	     25.07496011	     -0.96343993	      0.71850661	    -61.56721212	      5.45190173	    -16.58078403	     -3.37024997	      1.95760167	      7.10651298	      0.22654945	     -7.59636407	      3.21590269	     -6.71161048	      4.11685085	     -2.82098763	      0.51824340	      1.75177440
      1.19950000	      0.38088051	      2.18716543	     -1.39330088	      0.20043312	      1.01186178	      0.28280481	     25.33574066	     -0.81277577	      0.78748090	    -60.57084071	      5.79139089	    -16.68774899	     -3.52025916	      1.44285565	      7.01697930	      0.36926914	     -7.27867637	      3.30628060	     -6.77673821	      4.00108802	     -2.89455222	      0.62752891	      1.60247383
      1.20366667	      0.32085467	      2.08557666	     -1.35718240	      0.20542447	      1.01199774	      0.28277124	     25.67382792	     -0.65428375	      0.85640429	    -59.52861085	      6.12812025	    -16.73199085	     -3.57765883	      1.05985064	      6.91539457	      0.44953483	     -7.03531045	      3.39561310	     -6.78095075	      3.95654768	     -2.85906979	      0.75128383	      1.55435664
      1.20783333	      0.34541220	      2.00621074	     -1.32148633	      0.21042233	      1.01219656	      0.28272654	     25.89630875	     -0.52686680	      0.92470739	    -58.43481287	      6.40254412	    -16.86613028	     -3.73432194	      0.55282328	      6.84542238	      0.59829017	     -6.72809015	      3.48127953	     -6.86121302	      3.84031502	     -2.92751794	      0.84079152	      1.41717097
      1.21200000	      0.30990828	      1.91683455	     -1.27610424	      0.21541503	      1.01227649	      0.28268331	     26.16112205	     -0.38910612	      0.98331199	    -57.28749706	      6.65214675	    -16.97804451	     -3.90018961	      0.12882931	      6.76043524	      0.73585163	     -6.45734244	      3.57074177	     -6.93207892	      3.72063471	     -2.92666844	      0.94834238	      1.31562186
      1.21616667	      0.24697431	      1.83175664	     -1.22695778	      0.22040947	      1.01229708	      0.28264422	     26.43041579	     -0.25950287	      1.03728860	    -56.08476524	      6.89745431	    -17.03295984	     -3.96385605	     -0.24394269	      6.67490291	      0.81448967	     -6.22648280	      3.64736204	     -6.93860310	      3.67593606	     -2.87645488	      1.05355314	      1.26769960
      1.22033333	      0.26143215	      1.76374749	     -1.18738282	      0.22540575	      1.01236731	      0.28260649	     26.59606801	     -0.14963692	      1.09906857	    -54.83691118	      7.04179114	    -17.20155673	     -4.11358568	     -0.74071009	      6.61425408	      0.97152069	     -5.91689288	      3.72719370	     -7.02632092	      3.57439628	     -2.94432618	      1.12879343	      1.13505416
      1.22450000	      0.19686908	      1.68121298	     -1.12924338	      0.23040845	      1.01229395	      0.28256575	     26.82271417	     -0.03290905	      1.13103375	    -53.54368629	      7.21438200	    -17.27311378	     -4.19804616	     -1.11571750	      6.53080550	      1.06908632	     -5.67946417	      3.80629372	     -7.06607914	      3.51841147	     -2.89769136	      1.23012694	      1.07234295
      1.22866667	      0.19328103	      1.62951592	     -1.08950928	      0.23540952	      1.01225621	      0.28253337	     26.96565011	      0.05547808	      1.19035204	    -52.20929992	      7.28558233	    -17.44124937	     -4.36063979	     -1.59103124	      6.48604545	      1.22348586	     -5.37368121	      3.87573504	     -7.16310379	      3.41203274	     -2.93823640	      1.28924300	      0.94440088
      1.23283333	      0.16065740	      1.57135053	     -1.03896347	      0.24043682	      1.01215418	      0.28249350	     27.11345858	      0.13899127	      1.21850083	    -50.83052016	      7.35806488	    -17.56241597	     -4.56105793	     -2.02690877	      6.43096050	      1.35177581	     -5.08440839	      3.93541932	     -7.25918556	      3.28097189	     -2.92485477	      1.35752264	      0.84337123
      1.23700000	      0.10273832	      1.50571145	     -0.98238736	      0.24544071	      1.01198469	      0.28246662	     27.26503418	      0.22988703	      1.24394524	    -49.40641024	      7.42803563	    -17.59186988	     -4.64492524	     -2.40474505	      6.36225761	      1.43584200	     -4.85598875	      4.02113130	     -7.27831119	      3.22827557	     -2.89556593	      1.43684020	      0.79550833
      1.24116667	      0.09270605	      1.46602771	     -0.94120335	      0.25044478	      1.01183461	      0.28245575	     27.34588767	      0.30063332	      1.29725001	    -47.94719404	      7.39808815	    -17.71662913	     -4.79579951	     -2.86308885	      6.32549362	      1.56524190	     -4.56962477	      4.09202448	     -7.34622053	      3.13269013	     -2.93142431	      1.48397954	      0.68628423
      1.24533333	      0.05333536	      1.42208163	     -0.89573351	      0.25547282	      1.01161331	      0.28244506	     27.43635402	      0.36570290	      1.32456419	    -46.45565500	      7.36982132	    -17.77021169	     -4.93585230	     -3.27920854	      6.28119209	      1.66075257	     -4.30661532	      4.16638375	     -7.40001495	      3.04188664	     -2.91836432	      1.54060626	      0.60840739
